<svg xmlns="http://www.w3.org/2000/svg" width="256" height="256"><path fill-opacity=".016" d="M0 128.004v128.004l128.25-.254 128.25-.254.254-127.75L257.008 0H0v128.004m.485.496c0 70.4.119 99.053.265 63.672.146-35.38.146-92.98 0-128C.604 29.153.485 58.1.485 128.5" fill="#1976D2" fill-rule="evenodd"/><path fill-opacity=".215" d="M71.25 32.191L16 64.195l.011 64.153.011 64.152 55.457 31.829c30.501 17.506 55.809 31.638 56.239 31.404.43-.234 25.648-14.758 56.039-32.276l55.258-31.851-.258-64-.257-63.999-55.34-31.803C152.723 14.312 127.523.042 127.16.093c-.363.052-25.522 14.496-55.91 32.098m9 38.484L76 73.15V182.515l4.541 2.742C83.038 186.766 85.495 188 86 188c.505 0 2.962-1.234 5.459-2.743L96 182.515v-44.543l31.25.264 31.25.264.269 22.166.269 22.166 4.675 2.74 4.674 2.739 5.315-2.782 5.315-2.783-.259-54.539-.258-54.538-4.822-2.963-4.822-2.963-4.678 2.571-4.678 2.571-.5 22.308-.5 22.307-31.25.264-31.25.264v-44.71l-4.885-2.659c-2.687-1.462-5.275-2.614-5.75-2.559-.476.055-2.777 1.214-5.115 2.575" fill="#1976D2" fill-rule="evenodd"/><path fill-opacity=".178" d="M74.441 30.83C45.259 47.698 20.168 62.3 18.684 63.278l-2.699 1.778.258 63.639.257 63.638L71.783 224.1l55.282 31.767 55.468-32.029L238 191.809v-26.241c0-14.432.296-43.091.658-63.686l.659-37.446-53.909-30.909c-29.649-17-54.808-31.463-55.908-32.139-1.776-1.092-7.93 2.199-55.059 29.442m6.309 39.367L76 73.169V182.828l5 3.077 5 3.077 5-3.077 5-3.077V139h62v43.579l5.375 3.087 5.375 3.087 5.125-2.959 5.125-2.959V73.193l-5.193-2.934-5.193-2.934-5.307 3.048L158 73.421V117H96.038l-.269-22.052-.269-22.052-5-2.835-5-2.835-4.75 2.971" fill="#1976D2" fill-rule="evenodd"/><path fill-opacity=".302" d="M71.764 32.708L17.029 64.361l-.265 63.815-.264 63.815 54.411 31.255c29.927 17.19 55.196 31.254 56.154 31.254.958 0 26.312-14.175 56.341-31.5l54.6-31.5-.253-63.869-.253-63.868L183 32.405c-29.975-17.247-54.95-31.357-55.5-31.354-.55.002-25.631 14.247-55.736 31.657m8.486 37.397L75 73.165v109.688L80.5 186l5.5 3.147L91.5 186l5.5-3.147V139h61V182.853l5.509 3.152 5.51 3.153 4.74-2.914 4.741-2.913.258-55.074.259-55.075-5.078-3.125-5.078-3.124-5.431 3.107-5.43 3.107V117H97V73.467l-5.406-3.233c-2.974-1.779-5.561-3.224-5.75-3.212-.189.012-2.706 1.399-5.594 3.083" fill="#1976D2" fill-rule="evenodd"/></svg>