<svg xmlns="http://www.w3.org/2000/svg" width="256" height="256"><path fill-opacity=".016" d="M0 128.004v128.004l128.25-.254 128.25-.254.254-127.75L257.008 0H0v128.004m.485.496c0 70.4.119 99.053.265 63.672.146-35.38.146-92.98 0-128C.604 29.153.485 58.1.485 128.5" fill="#1976D2" fill-rule="evenodd"/><path fill-opacity=".175" d="M111.635 1.063C56.828 8.673 13.952 49.057 2.345 104c-2.505 11.861-2.475 37.23.058 49 10.695 49.682 46.236 86.823 95.376 99.672 13.428 3.511 36.454 4.346 51.314 1.861 40.41-6.757 74.648-31.958 93.364-68.722 6.373-12.518 9.692-22.866 12.506-38.983 3.219-18.446 2.798-26.71-2.5-49.008C241.234 50.555 203.664 13.965 155 2.899 144.986.622 121.863-.357 111.635 1.063M74.381 55.851c-1.716 1.078-3.628 3.42-4.25 5.204C69.335 63.337 69 83.333 69 128.501v64.203l2.285 3.398c4.33 6.441 12.57 6.854 17.965.901l2.75-3.035V140h72l.056 25.25c.061 27.258.573 30.676 5.092 34.026 5.192 3.848 14.132 1.794 16.698-3.837.835-1.833 1.154-20.8 1.154-68.586V60.8l-3.4-3.4c-3.695-3.695-8.168-4.465-13.039-2.246-5.796 2.641-6.033 3.893-6.37 33.596l-.309 27.25H92.089l-.294-27.979-.295-27.979-2.632-2.63c-3.568-3.566-10.167-4.277-14.487-1.561M.374 128.5c.002 6.05.167 8.396.366 5.213.199-3.182.197-8.132-.004-11-.201-2.867-.364-.263-.362 5.787" fill="#1976D2" fill-rule="evenodd"/><path fill-opacity=".309" d="M116.009 1.062C58.642 6.767 12.348 49.683 2.336 106.442.214 118.47.267 138.91 2.451 150.464c4.848 25.656 15.565 46.882 32.957 65.276 32.257 34.115 79.332 47.708 125.092 36.12 43.864-11.107 80.165-47.405 91.377-91.368 1.123-4.404 2.75-13.749 3.615-20.767 1.436-11.655 1.433-13.765-.033-24.368-4.66-33.699-16.976-58.446-39.853-80.076-26.574-25.127-63.489-37.809-99.597-34.219M77.333 54.171c-1.742.464-4.329 2.225-5.75 3.913L69 61.153v65.973c0 73.114-.27 70.094 6.553 73.332 4.845 2.299 9.918 1.32 13.602-2.624l2.813-3.011.266-27.162.266-27.161 35.705-.263 35.704-.262.296 27.495.295 27.495 3.093 3.092c4.096 4.093 9.613 4.859 14.217 1.974 6.31-3.955 6.19-2.567 6.19-71.374 0-34.324-.287-63.84-.637-65.592-.817-4.087-5.432-8.701-9.264-9.264-4.617-.677-9.286 1.337-11.814 5.097-2.239 3.329-2.285 3.941-2.285 30.25V116H92V61.032l-2.75-3.035c-3.268-3.606-7.563-4.985-11.917-3.826M.272 128c0 2.475.195 3.488.434 2.25.238-1.238.238-3.263 0-4.5-.239-1.237-.434-.225-.434 2.25" fill="#1976D2" fill-rule="evenodd"/><path fill-opacity=".217" d="M109.635 2.1C92.139 4.655 72.041 12.555 56.407 23.021c-10.143 6.79-26.596 23.243-33.386 33.386C-4.68 97.785-6.419 150.508 18.515 193c18.175 30.974 48.408 52.427 84.751 60.141 12.883 2.734 35.924 2.964 48.234.482 27.098-5.465 49.979-17.912 68.457-37.24 13.814-14.449 23.615-30.647 29.469-48.701 8.415-25.953 8.015-56.629-1.067-81.916-15.841-44.1-53.83-75.833-99.687-83.27C138.84.901 119.209.702 109.635 2.1M75.299 54.624c-7.138 3.52-6.765-.13-7.105 69.376-.168 34.375-.024 64.441.321 66.813.913 6.285 4.812 10.244 10.748 10.913 5.481.618 8.746-1.054 11.781-6.03 1.798-2.949 1.949-5.187 1.952-28.946L93 141h71v26.05c0 28.64.336 30.521 5.967 33.433 5.311 2.746 9.787 1.998 14.151-2.365l3.882-3.883-.004-65.867c-.003-63.988-.06-65.961-1.993-69.131-4.417-7.244-13.342-8.032-18.927-1.671L164 61.07V116H93V89.968c0-29.007-.429-31.43-6.19-34.942-3.961-2.415-7.199-2.528-11.511-.402" fill="#1976D2" fill-rule="evenodd"/></svg>