<svg viewBox="0 0 1240 1240" xmlns="http://www.w3.org/2000/svg" fill-rule="evenodd" clip-rule="evenodd" stroke-linejoin="round" stroke-miterlimit="2"><circle cx="620" cy="620" r="500" fill="#fff"/><path d="M755.627 381.203c.132-24.618 20.158-44.562 44.804-44.562 24.729 0 44.805 20.077 44.805 44.805l-.001.242h.001v477.111l-.235.136c-2.313 22.565-21.399 40.191-44.57 40.191-23.432 0-42.688-18.027-44.641-40.957l-.163-.097V666.017H484.376v192.782l-.235.136c-2.313 22.565-21.399 40.191-44.57 40.191-23.432 0-42.688-18.027-44.641-40.957l-.164-.097v-477.11l.003-.002c.263-24.506 20.237-44.319 44.802-44.319 24.632 0 44.648 19.92 44.804 44.516l.001.289v192.54h271.251V381.203z" fill="#0e83cd" fill-rule="nonzero"/></svg>